<svg width="1014" height="250" viewBox="0 0 1014 250" fill="none" xmlns="http://www.w3.org/2000/svg">
<g clip-path="url(#clip0_1_5)">
<rect width="1014" height="250" fill="white"/>
<path d="M124.9 0C55.9342 0 0 55.9342 0 124.9C0 193.865 55.9342 249.8 124.9 249.8C193.865 249.8 249.8 193.865 249.8 124.9C250 55.9342 194.066 0 124.9 0ZM119.286 186.447C112.47 191.259 104.25 194.066 96.0305 194.066C81.5958 194.066 68.3641 186.247 58.34 171.812C49.3184 157.979 44.3063 141.941 43.9054 125.501C43.9054 124.9 44.3063 124.298 44.9078 124.098L54.7314 119.687C55.5333 119.286 56.3352 119.687 56.7362 120.489C56.7362 120.69 56.9366 120.89 56.9366 121.091C56.9366 137.53 61.3472 152.967 69.166 164.395C76.5838 175.221 86.2069 181.034 96.231 181.034C101.644 181.034 107.057 179.431 111.468 176.423C112.069 176.022 113.071 176.223 113.472 176.824C115.477 179.431 117.482 181.836 119.687 184.242C119.888 184.844 119.888 185.846 119.286 186.447ZM191.66 171.812C181.836 186.047 168.404 194.066 153.97 194.066C139.535 194.066 126.303 186.047 116.279 171.812C106.856 158.18 101.644 140.136 101.644 121.091C101.644 103.448 111.868 89.6151 124.699 89.6151C137.53 89.6151 147.755 103.448 147.755 121.091C147.955 136.528 144.346 151.564 137.129 165.196C136.728 165.998 135.726 166.199 135.124 165.798C134.924 165.798 134.924 165.597 134.723 165.397C133.52 163.994 132.318 162.59 131.315 161.187C130.112 159.383 129.11 157.779 128.107 155.774C127.907 155.373 127.907 154.771 128.107 154.37C132.719 143.745 134.924 132.318 134.924 120.89C134.924 112.269 130.513 102.446 124.699 102.446C118.885 102.446 114.475 112.269 114.475 120.89C114.475 137.33 118.885 152.767 126.704 164.194C134.122 175.02 143.745 180.834 153.769 180.834C163.793 180.834 173.416 174.82 180.834 164.194C188.653 152.767 193.063 137.33 193.063 120.89C193.063 104.451 188.653 89.0136 180.834 77.5862C178.629 74.178 175.822 71.1708 172.815 68.5646C172.213 67.9631 172.213 66.9607 172.614 66.3593C172.815 66.1588 173.015 65.9583 173.216 65.9583L183.039 61.5477C183.641 61.3472 184.242 61.3472 184.643 61.9487C187.249 64.5549 189.455 67.3617 191.46 70.1684C200.882 83.8011 206.095 101.844 206.095 120.89C206.095 139.936 201.083 158.18 191.66 171.812Z" fill="#A566FF"/>
<path d="M308.784 169.136H310.128C310.48 169.136 310.656 169.312 310.656 169.664V193.184C310.656 195.296 310.048 196.96 308.832 198.176C307.648 199.392 306.016 200 303.936 200H298.56C296.48 200 294.832 199.392 293.616 198.176C292.432 196.96 291.84 195.296 291.84 193.184V169.712C291.84 169.328 292 169.136 292.32 169.136H293.712C294.064 169.136 294.24 169.328 294.24 169.712V193.088C294.24 194.592 294.624 195.76 295.392 196.592C296.16 197.424 297.28 197.84 298.752 197.84H303.696C305.168 197.84 306.288 197.44 307.056 196.64C307.856 195.808 308.256 194.624 308.256 193.088V169.712C308.256 169.328 308.432 169.136 308.784 169.136ZM323.076 200H321.684C321.364 200 321.204 199.808 321.204 199.424V176.096C321.204 175.712 321.364 175.52 321.684 175.52H323.076C323.428 175.52 323.604 175.712 323.604 176.096V178.016H323.796C324.692 176.352 326.356 175.52 328.788 175.52H331.956C334.004 175.52 335.62 176.128 336.804 177.344C337.988 178.56 338.58 180.224 338.58 182.336V199.424C338.58 199.808 338.42 200 338.1 200H336.708C336.356 200 336.18 199.808 336.18 199.424V182.432C336.18 180.928 335.796 179.76 335.028 178.928C334.26 178.096 333.14 177.68 331.668 177.68H328.548C327.012 177.68 325.796 178.096 324.9 178.928C324.036 179.728 323.604 180.88 323.604 182.384V199.424C323.604 199.808 323.428 200 323.076 200ZM359.02 200H354.892C352.812 200 351.164 199.392 349.948 198.176C348.764 196.96 348.172 195.296 348.172 193.184V182.336C348.172 180.224 348.764 178.56 349.948 177.344C351.164 176.128 352.812 175.52 354.892 175.52H359.02C361.1 175.52 362.748 176.128 363.964 177.344C365.18 178.56 365.788 180.224 365.788 182.336V193.184C365.788 195.296 365.18 196.96 363.964 198.176C362.748 199.392 361.1 200 359.02 200ZM355.084 197.84H358.828C360.3 197.84 361.42 197.44 362.188 196.64C362.988 195.808 363.388 194.64 363.388 193.136V182.384C363.388 180.88 362.988 179.728 362.188 178.928C361.42 178.096 360.3 177.68 358.828 177.68H355.084C353.612 177.68 352.492 178.096 351.724 178.928C350.956 179.728 350.572 180.88 350.572 182.384V193.136C350.572 194.64 350.956 195.808 351.724 196.64C352.492 197.44 353.612 197.84 355.084 197.84ZM380.625 175.52H384.993C385.377 175.52 385.569 175.696 385.569 176.048V177.152C385.569 177.504 385.377 177.68 384.993 177.68H380.625C380.337 177.68 380.193 177.824 380.193 178.112V199.424C380.193 199.808 380.017 200 379.665 200H378.273C377.921 200 377.745 199.808 377.745 199.424V178.112C377.745 177.824 377.601 177.68 377.313 177.68H374.241C373.889 177.68 373.713 177.504 373.713 177.152V176.048C373.713 175.696 373.889 175.52 374.241 175.52H377.313C377.601 175.52 377.745 175.376 377.745 175.088V172.976C377.745 168.496 379.777 166.256 383.841 166.256H384.993C385.377 166.256 385.569 166.432 385.569 166.784V167.888C385.569 168.24 385.377 168.416 384.993 168.416H384.081C382.641 168.416 381.633 168.8 381.057 169.568C380.481 170.336 380.193 171.504 380.193 173.072V175.088C380.193 175.376 380.337 175.52 380.625 175.52ZM398.276 175.52H402.644C403.028 175.52 403.22 175.696 403.22 176.048V177.152C403.22 177.504 403.028 177.68 402.644 177.68H398.276C397.988 177.68 397.844 177.824 397.844 178.112V199.424C397.844 199.808 397.668 200 397.316 200H395.924C395.572 200 395.396 199.808 395.396 199.424V178.112C395.396 177.824 395.252 177.68 394.964 177.68H391.892C391.54 177.68 391.364 177.504 391.364 177.152V176.048C391.364 175.696 391.54 175.52 391.892 175.52H394.964C395.252 175.52 395.396 175.376 395.396 175.088V172.976C395.396 168.496 397.428 166.256 401.492 166.256H402.644C403.028 166.256 403.22 166.432 403.22 166.784V167.888C403.22 168.24 403.028 168.416 402.644 168.416H401.732C400.292 168.416 399.284 168.8 398.708 169.568C398.132 170.336 397.844 171.504 397.844 173.072V175.088C397.844 175.376 397.988 175.52 398.276 175.52ZM411.127 171.488V166.88C411.127 166.528 411.287 166.352 411.607 166.352H413.047C413.367 166.352 413.527 166.528 413.527 166.88V171.488C413.527 171.872 413.367 172.064 413.047 172.064H411.607C411.287 172.064 411.127 171.872 411.127 171.488ZM411.127 199.424V176.096C411.127 175.712 411.287 175.52 411.607 175.52H412.999C413.351 175.52 413.527 175.712 413.527 176.096V199.424C413.527 199.808 413.367 200 413.047 200H411.607C411.287 200 411.127 199.808 411.127 199.424ZM437.766 198.368V199.472C437.766 199.824 437.59 200 437.238 200H430.326C428.246 200 426.598 199.392 425.382 198.176C424.198 196.96 423.606 195.296 423.606 193.184V182.336C423.606 180.224 424.198 178.56 425.382 177.344C426.598 176.128 428.246 175.52 430.326 175.52H437.238C437.59 175.52 437.766 175.696 437.766 176.048V177.2C437.766 177.52 437.59 177.68 437.238 177.68H430.518C429.046 177.68 427.926 178.096 427.158 178.928C426.39 179.76 426.006 180.928 426.006 182.432V193.088C426.006 194.592 426.39 195.76 427.158 196.592C427.926 197.424 429.046 197.84 430.518 197.84H437.238C437.59 197.84 437.766 198.016 437.766 198.368ZM446.336 171.488V166.88C446.336 166.528 446.496 166.352 446.816 166.352H448.256C448.576 166.352 448.736 166.528 448.736 166.88V171.488C448.736 171.872 448.576 172.064 448.256 172.064H446.816C446.496 172.064 446.336 171.872 446.336 171.488ZM446.336 199.424V176.096C446.336 175.712 446.496 175.52 446.816 175.52H448.208C448.56 175.52 448.736 175.712 448.736 176.096V199.424C448.736 199.808 448.576 200 448.256 200H446.816C446.496 200 446.336 199.808 446.336 199.424ZM468.606 200H465.534C463.454 200 461.806 199.392 460.59 198.176C459.406 196.96 458.814 195.296 458.814 193.184V182.336C458.814 180.224 459.406 178.56 460.59 177.344C461.806 176.128 463.454 175.52 465.534 175.52H475.71C476.03 175.52 476.19 175.712 476.19 176.096V199.424C476.19 199.808 476.03 200 475.71 200H474.318C473.966 200 473.79 199.808 473.79 199.424V197.504H473.598C472.766 199.168 471.102 200 468.606 200ZM473.79 193.136V178.112C473.79 177.824 473.63 177.68 473.31 177.68H465.726C464.254 177.68 463.134 178.096 462.366 178.928C461.598 179.76 461.214 180.928 461.214 182.432V193.088C461.214 194.592 461.598 195.76 462.366 196.592C463.134 197.424 464.254 197.84 465.726 197.84H468.846C470.382 197.84 471.582 197.44 472.446 196.64C473.342 195.808 473.79 194.64 473.79 193.136ZM488.62 200H487.228C486.908 200 486.748 199.808 486.748 199.424V166.832C486.748 166.448 486.908 166.256 487.228 166.256H488.62C488.972 166.256 489.148 166.448 489.148 166.832V199.424C489.148 199.808 488.972 200 488.62 200ZM528.391 200H522.343C520.263 200 518.615 199.392 517.399 198.176C516.215 196.96 515.623 195.296 515.623 193.184V175.952C515.623 173.84 516.215 172.176 517.399 170.96C518.615 169.744 520.263 169.136 522.343 169.136H528.391C530.471 169.136 532.103 169.744 533.287 170.96C534.503 172.176 535.111 173.84 535.111 175.952V178.304C535.111 178.688 534.935 178.88 534.583 178.88H533.239C532.887 178.88 532.711 178.688 532.711 178.304V176.048C532.711 174.512 532.311 173.344 531.511 172.544C530.743 171.712 529.623 171.296 528.151 171.296H522.535C521.063 171.296 519.943 171.712 519.175 172.544C518.407 173.376 518.023 174.544 518.023 176.048V193.088C518.023 194.592 518.407 195.76 519.175 196.592C519.943 197.424 521.063 197.84 522.535 197.84H528.151C529.623 197.84 530.743 197.44 531.511 196.64C532.311 195.808 532.711 194.624 532.711 193.088V190.832C532.711 190.448 532.887 190.256 533.239 190.256H534.583C534.935 190.256 535.111 190.448 535.111 190.832V193.184C535.111 195.296 534.503 196.96 533.287 198.176C532.103 199.392 530.471 200 528.391 200ZM555.127 200H550.999C548.919 200 547.271 199.392 546.055 198.176C544.871 196.96 544.279 195.296 544.279 193.184V182.336C544.279 180.224 544.871 178.56 546.055 177.344C547.271 176.128 548.919 175.52 550.999 175.52H555.127C557.207 175.52 558.855 176.128 560.071 177.344C561.287 178.56 561.895 180.224 561.895 182.336V193.184C561.895 195.296 561.287 196.96 560.071 198.176C558.855 199.392 557.207 200 555.127 200ZM551.191 197.84H554.935C556.407 197.84 557.527 197.44 558.295 196.64C559.095 195.808 559.495 194.64 559.495 193.136V182.384C559.495 180.88 559.095 179.728 558.295 178.928C557.527 178.096 556.407 177.68 554.935 177.68H551.191C549.719 177.68 548.599 178.096 547.831 178.928C547.063 179.728 546.679 180.88 546.679 182.384V193.136C546.679 194.64 547.063 195.808 547.831 196.64C548.599 197.44 549.719 197.84 551.191 197.84ZM573.563 200H572.171C571.851 200 571.691 199.808 571.691 199.424V176.096C571.691 175.712 571.851 175.52 572.171 175.52H573.563C573.915 175.52 574.091 175.712 574.091 176.096V178.016H574.283C575.211 176.352 576.907 175.52 579.371 175.52H581.339C584.155 175.52 586.107 176.64 587.195 178.88C587.675 177.76 588.491 176.928 589.643 176.384C590.795 175.808 591.979 175.52 593.195 175.52H594.971C597.051 175.52 598.683 176.128 599.867 177.344C601.051 178.56 601.643 180.224 601.643 182.336V199.424C601.643 199.808 601.467 200 601.115 200H599.723C599.371 200 599.195 199.808 599.195 199.424V182.432C599.195 180.896 598.811 179.728 598.043 178.928C597.275 178.096 596.155 177.68 594.683 177.68H592.907C591.371 177.68 590.155 178.128 589.259 179.024C588.363 179.888 587.915 181.072 587.915 182.576V199.424C587.915 199.808 587.739 200 587.387 200H585.995C585.643 200 585.467 199.808 585.467 199.424V182.432C585.467 180.896 585.083 179.728 584.315 178.928C583.547 178.096 582.427 177.68 580.955 177.68H579.035C577.499 177.68 576.283 178.096 575.387 178.928C574.523 179.728 574.091 180.88 574.091 182.384V199.424C574.091 199.808 573.915 200 573.563 200ZM613.574 200H612.182C611.862 200 611.702 199.808 611.702 199.424V176.096C611.702 175.712 611.862 175.52 612.182 175.52H613.574C613.926 175.52 614.102 175.712 614.102 176.096V178.016H614.294C615.222 176.352 616.918 175.52 619.382 175.52H621.35C624.166 175.52 626.118 176.64 627.206 178.88C627.686 177.76 628.502 176.928 629.654 176.384C630.806 175.808 631.99 175.52 633.206 175.52H634.982C637.062 175.52 638.694 176.128 639.878 177.344C641.062 178.56 641.654 180.224 641.654 182.336V199.424C641.654 199.808 641.478 200 641.126 200H639.734C639.382 200 639.206 199.808 639.206 199.424V182.432C639.206 180.896 638.822 179.728 638.054 178.928C637.286 178.096 636.166 177.68 634.694 177.68H632.918C631.382 177.68 630.166 178.128 629.27 179.024C628.374 179.888 627.926 181.072 627.926 182.576V199.424C627.926 199.808 627.75 200 627.398 200H626.006C625.654 200 625.478 199.808 625.478 199.424V182.432C625.478 180.896 625.094 179.728 624.326 178.928C623.558 178.096 622.438 177.68 620.966 177.68H619.046C617.51 177.68 616.294 178.096 615.398 178.928C614.534 179.728 614.102 180.88 614.102 182.384V199.424C614.102 199.808 613.926 200 613.574 200ZM661.264 200H658.096C656.048 200 654.432 199.392 653.248 198.176C652.064 196.96 651.472 195.296 651.472 193.184V176.096C651.472 175.712 651.632 175.52 651.952 175.52H653.344C653.696 175.52 653.872 175.712 653.872 176.096V193.088C653.872 194.592 654.256 195.76 655.024 196.592C655.792 197.424 656.912 197.84 658.384 197.84H661.504C663.04 197.84 664.24 197.44 665.104 196.64C666 195.808 666.448 194.64 666.448 193.136V176.096C666.448 175.712 666.624 175.52 666.976 175.52H668.368C668.688 175.52 668.848 175.712 668.848 176.096V199.424C668.848 199.808 668.688 200 668.368 200H666.976C666.624 200 666.448 199.808 666.448 199.424V197.504H666.256C665.424 199.168 663.76 200 661.264 200ZM681.033 200H679.641C679.321 200 679.161 199.808 679.161 199.424V176.096C679.161 175.712 679.321 175.52 679.641 175.52H681.033C681.385 175.52 681.561 175.712 681.561 176.096V178.016H681.753C682.649 176.352 684.313 175.52 686.745 175.52H689.913C691.961 175.52 693.577 176.128 694.761 177.344C695.945 178.56 696.537 180.224 696.537 182.336V199.424C696.537 199.808 696.377 200 696.057 200H694.665C694.313 200 694.137 199.808 694.137 199.424V182.432C694.137 180.928 693.753 179.76 692.985 178.928C692.217 178.096 691.097 177.68 689.625 177.68H686.505C684.969 177.68 683.753 178.096 682.857 178.928C681.993 179.728 681.561 180.88 681.561 182.384V199.424C681.561 199.808 681.385 200 681.033 200ZM706.849 171.488V166.88C706.849 166.528 707.009 166.352 707.329 166.352H708.769C709.089 166.352 709.249 166.528 709.249 166.88V171.488C709.249 171.872 709.089 172.064 708.769 172.064H707.329C707.009 172.064 706.849 171.872 706.849 171.488ZM706.849 199.424V176.096C706.849 175.712 707.009 175.52 707.329 175.52H708.721C709.073 175.52 709.249 175.712 709.249 176.096V199.424C709.249 199.808 709.089 200 708.769 200H707.329C707.009 200 706.849 199.808 706.849 199.424ZM720.863 177.68H717.935C717.583 177.68 717.407 177.52 717.407 177.2V176.048C717.407 175.696 717.583 175.52 717.935 175.52H720.863C721.151 175.52 721.295 175.376 721.295 175.088V171.2C721.295 170.816 721.471 170.624 721.823 170.624H723.215C723.567 170.624 723.743 170.816 723.743 171.2V175.088C723.743 175.376 723.887 175.52 724.175 175.52H729.887C730.239 175.52 730.415 175.696 730.415 176.048V177.2C730.415 177.52 730.239 177.68 729.887 177.68H724.175C723.887 177.68 723.743 177.824 723.743 178.112V193.232C723.743 194.704 724.159 195.84 724.991 196.64C725.823 197.44 726.991 197.84 728.495 197.84H730.367C730.719 197.84 730.895 198.016 730.895 198.368V199.472C730.895 199.824 730.719 200 730.367 200H728.303C726.191 200 724.495 199.408 723.215 198.224C721.935 197.04 721.295 195.408 721.295 193.328V178.112C721.295 177.824 721.151 177.68 720.863 177.68ZM740.719 207.296H738.943C738.591 207.296 738.415 207.12 738.415 206.768V205.616C738.415 205.264 738.591 205.088 738.943 205.088H740.239C741.199 205.088 742.015 204.944 742.687 204.656C743.359 204.4 743.951 203.904 744.463 203.168C744.975 202.432 745.311 201.856 745.471 201.44C745.919 200.448 746.287 199.536 746.575 198.704H745.663C745.311 198.704 745.087 198.512 744.991 198.128L737.359 176.096C737.231 175.712 737.359 175.52 737.743 175.52H739.231C739.551 175.52 739.759 175.712 739.855 176.096L746.911 196.688H747.103L754.159 176.096C754.255 175.712 754.464 175.52 754.783 175.52H756.223C756.607 175.52 756.751 175.712 756.655 176.096C750.927 192.864 747.935 201.536 747.679 202.112C747.455 202.688 747.023 203.472 746.383 204.464C745.167 206.352 743.279 207.296 740.719 207.296ZM783.996 197.84H793.212C794.684 197.84 795.804 197.44 796.572 196.64C797.372 195.808 797.772 194.624 797.772 193.088V176.048C797.772 174.512 797.372 173.344 796.572 172.544C795.804 171.712 794.684 171.296 793.212 171.296H783.996C783.676 171.296 783.516 171.44 783.516 171.728V197.408C783.516 197.696 783.676 197.84 783.996 197.84ZM781.116 199.424V169.712C781.116 169.328 781.276 169.136 781.596 169.136H793.452C795.532 169.136 797.164 169.744 798.348 170.96C799.564 172.176 800.172 173.84 800.172 175.952V193.184C800.172 195.296 799.564 196.96 798.348 198.176C797.164 199.392 795.532 200 793.452 200H781.596C781.276 200 781.116 199.808 781.116 199.424ZM819.786 200H816.714C814.634 200 812.986 199.392 811.77 198.176C810.586 196.96 809.994 195.296 809.994 193.184V182.336C809.994 180.224 810.586 178.56 811.77 177.344C812.986 176.128 814.634 175.52 816.714 175.52H826.89C827.21 175.52 827.37 175.712 827.37 176.096V199.424C827.37 199.808 827.21 200 826.89 200H825.498C825.146 200 824.97 199.808 824.97 199.424V197.504H824.778C823.946 199.168 822.282 200 819.786 200ZM824.97 193.136V178.112C824.97 177.824 824.81 177.68 824.49 177.68H816.906C815.434 177.68 814.314 178.096 813.546 178.928C812.778 179.76 812.394 180.928 812.394 182.432V193.088C812.394 194.592 812.778 195.76 813.546 196.592C814.314 197.424 815.434 197.84 816.906 197.84H820.026C821.562 197.84 822.762 197.44 823.626 196.64C824.522 195.808 824.97 194.64 824.97 193.136ZM845.608 200H837.256C836.904 200 836.728 199.824 836.728 199.472V198.368C836.728 198.048 836.904 197.888 837.256 197.888H845.368C848.248 197.888 849.688 196.768 849.688 194.528V193.376C849.688 191.296 848.792 189.936 847 189.296L841 186.992C839.368 186.352 838.2 185.6 837.496 184.736C836.824 183.872 836.488 182.672 836.488 181.136C836.488 177.392 838.552 175.52 842.68 175.52H850.456C850.808 175.52 850.984 175.696 850.984 176.048V177.152C850.984 177.472 850.808 177.632 850.456 177.632H842.92C841.608 177.632 840.616 177.92 839.944 178.496C839.304 179.072 838.984 179.744 838.984 180.512V181.616C838.984 182.512 839.224 183.216 839.704 183.728C840.216 184.24 840.984 184.672 842.008 185.024L848.008 187.424C849.672 187.968 850.776 188.784 851.32 189.872C851.896 190.928 852.184 192.416 852.184 194.336C852.184 196.256 851.64 197.68 850.552 198.608C849.496 199.536 847.848 200 845.608 200ZM863.352 200H861.96C861.64 200 861.48 199.808 861.48 199.424V166.832C861.48 166.448 861.64 166.256 861.96 166.256H863.352C863.704 166.256 863.88 166.448 863.88 166.832V178.016H864.072C864.968 176.352 866.632 175.52 869.064 175.52H872.232C874.28 175.52 875.896 176.128 877.08 177.344C878.264 178.56 878.856 180.224 878.856 182.336V199.424C878.856 199.808 878.696 200 878.376 200H876.984C876.632 200 876.456 199.808 876.456 199.424V182.432C876.456 180.928 876.072 179.76 875.304 178.928C874.536 178.096 873.416 177.68 871.944 177.68H868.824C867.288 177.68 866.072 178.096 865.176 178.928C864.312 179.728 863.88 180.88 863.88 182.384V199.424C863.88 199.808 863.704 200 863.352 200ZM891.808 197.84H899.44C900.912 197.84 902.032 197.44 902.8 196.64C903.6 195.808 904 194.624 904 193.088V182C904 180.496 903.6 179.344 902.8 178.544C902.032 177.712 900.912 177.296 899.44 177.296H896.272C894.736 177.296 893.52 177.712 892.624 178.544C891.76 179.344 891.328 180.496 891.328 182V197.408C891.328 197.696 891.488 197.84 891.808 197.84ZM888.928 199.424V166.832C888.928 166.448 889.088 166.256 889.408 166.256H890.8C891.152 166.256 891.328 166.448 891.328 166.832V177.632H891.52C892.416 175.968 894.08 175.136 896.512 175.136H899.68C901.76 175.136 903.392 175.744 904.576 176.96C905.792 178.176 906.4 179.824 906.4 181.904V193.184C906.4 195.296 905.792 196.96 904.576 198.176C903.392 199.392 901.76 200 899.68 200H889.408C889.088 200 888.928 199.808 888.928 199.424ZM926.604 200H922.476C920.396 200 918.748 199.392 917.532 198.176C916.348 196.96 915.756 195.296 915.756 193.184V182.336C915.756 180.224 916.348 178.56 917.532 177.344C918.748 176.128 920.396 175.52 922.476 175.52H926.604C928.684 175.52 930.332 176.128 931.548 177.344C932.764 178.56 933.372 180.224 933.372 182.336V193.184C933.372 195.296 932.764 196.96 931.548 198.176C930.332 199.392 928.684 200 926.604 200ZM922.668 197.84H926.412C927.884 197.84 929.004 197.44 929.772 196.64C930.572 195.808 930.972 194.64 930.972 193.136V182.384C930.972 180.88 930.572 179.728 929.772 178.928C929.004 178.096 927.884 177.68 926.412 177.68H922.668C921.196 177.68 920.076 178.096 919.308 178.928C918.54 179.728 918.156 180.88 918.156 182.384V193.136C918.156 194.64 918.54 195.808 919.308 196.64C920.076 197.44 921.196 197.84 922.668 197.84ZM952.48 200H949.408C947.328 200 945.68 199.392 944.464 198.176C943.28 196.96 942.688 195.296 942.688 193.184V182.336C942.688 180.224 943.28 178.56 944.464 177.344C945.68 176.128 947.328 175.52 949.408 175.52H959.584C959.904 175.52 960.064 175.712 960.064 176.096V199.424C960.064 199.808 959.904 200 959.584 200H958.192C957.84 200 957.664 199.808 957.664 199.424V197.504H957.472C956.64 199.168 954.976 200 952.48 200ZM957.664 193.136V178.112C957.664 177.824 957.504 177.68 957.184 177.68H949.6C948.128 177.68 947.008 178.096 946.24 178.928C945.472 179.76 945.088 180.928 945.088 182.432V193.088C945.088 194.592 945.472 195.76 946.24 196.592C947.008 197.424 948.128 197.84 949.6 197.84H952.72C954.256 197.84 955.456 197.44 956.32 196.64C957.216 195.808 957.664 194.64 957.664 193.136ZM972.254 200H970.862C970.542 200 970.382 199.808 970.382 199.424V176.096C970.382 175.712 970.542 175.52 970.862 175.52H972.254C972.606 175.52 972.782 175.712 972.782 176.096V178.112H972.974C973.326 177.44 973.95 176.848 974.846 176.336C975.742 175.792 976.846 175.52 978.158 175.52H980.03C980.382 175.52 980.558 175.696 980.558 176.048V177.2C980.558 177.552 980.382 177.712 980.03 177.68H977.774C976.206 177.68 974.974 178.16 974.078 179.12C973.214 180.08 972.782 181.376 972.782 183.008V199.424C972.782 199.808 972.606 200 972.254 200ZM997.909 200H994.693C992.645 200 991.029 199.392 989.845 198.176C988.661 196.96 988.069 195.296 988.069 193.184V182.336C988.069 180.224 988.661 178.56 989.845 177.344C991.029 176.128 992.645 175.52 994.693 175.52H997.909C1000.37 175.52 1002.05 176.352 1002.95 178.016H1003.14V166.832C1003.14 166.448 1003.3 166.256 1003.62 166.256H1005.01C1005.36 166.256 1005.54 166.448 1005.54 166.832V199.424C1005.54 199.808 1005.36 200 1005.01 200H1003.62C1003.3 200 1003.14 199.808 1003.14 199.424V197.504H1002.95C1002.05 199.168 1000.37 200 997.909 200ZM1003.14 193.136V182.384C1003.14 180.88 1002.69 179.728 1001.8 178.928C1000.93 178.096 999.733 177.68 998.197 177.68H994.981C993.509 177.68 992.389 178.096 991.621 178.928C990.853 179.76 990.469 180.928 990.469 182.432V193.088C990.469 194.592 990.853 195.76 991.621 196.592C992.389 197.424 993.509 197.84 994.981 197.84H998.197C999.733 197.84 1000.93 197.44 1001.8 196.64C1002.69 195.808 1003.14 194.64 1003.14 193.136Z" fill="#7907FE"/>
<path d="M328.704 122H307.968C303.232 122 299.552 120.688 296.928 118.064C294.368 115.44 293.088 111.792 293.088 107.12V87.92C293.088 83.184 294.368 79.536 296.928 76.976C299.552 74.352 303.232 73.04 307.968 73.04H315.84C320.576 73.04 324.256 74.352 326.88 76.976C329.504 79.536 330.816 83.184 330.816 87.92V100.112C330.816 101.264 330.24 101.84 329.088 101.84H303.36C302.656 101.84 302.304 102.16 302.304 102.8V106.928C302.304 111.6 304.64 113.936 309.312 113.936H328.704C329.856 113.936 330.432 114.512 330.432 115.664V120.464C330.432 121.488 329.856 122 328.704 122ZM303.36 95.312H320.544C321.184 95.312 321.504 94.992 321.504 94.352V88.208C321.504 85.776 320.96 84.016 319.872 82.928C318.784 81.776 317.024 81.2 314.592 81.2H309.312C306.88 81.2 305.12 81.776 304.032 82.928C302.944 84.016 302.4 85.776 302.4 88.208V94.352C302.4 94.992 302.72 95.312 303.36 95.312ZM351.472 122H345.424C344.336 122 343.792 121.456 343.792 120.368V74.672C343.792 73.584 344.336 73.04 345.424 73.04H351.472C352.56 73.04 353.104 73.584 353.104 74.672V78.128H353.488C355.024 74.736 358.256 73.04 363.184 73.04H367.408C372.08 73.04 375.664 74.32 378.16 76.88C380.656 79.44 381.904 83.12 381.904 87.92V120.368C381.904 121.456 381.328 122 380.176 122H374.128C373.04 122 372.496 121.456 372.496 120.368V88.304C372.496 83.568 370.16 81.2 365.488 81.2H360.976C355.728 81.2 353.104 83.92 353.104 89.36V120.368C353.104 121.456 352.56 122 351.472 122ZM430.442 122H409.706C404.97 122 401.29 120.688 398.666 118.064C396.106 115.44 394.826 111.792 394.826 107.12V87.92C394.826 83.184 396.106 79.536 398.666 76.976C401.29 74.352 404.97 73.04 409.706 73.04H417.578C422.314 73.04 425.994 74.352 428.618 76.976C431.242 79.536 432.554 83.184 432.554 87.92V100.112C432.554 101.264 431.978 101.84 430.826 101.84H405.098C404.394 101.84 404.042 102.16 404.042 102.8V106.928C404.042 111.6 406.378 113.936 411.05 113.936H430.442C431.594 113.936 432.17 114.512 432.17 115.664V120.464C432.17 121.488 431.594 122 430.442 122ZM405.098 95.312H422.282C422.922 95.312 423.242 94.992 423.242 94.352V88.208C423.242 85.776 422.698 84.016 421.61 82.928C420.522 81.776 418.762 81.2 416.33 81.2H411.05C408.618 81.2 406.858 81.776 405.77 82.928C404.682 84.016 404.138 85.776 404.138 88.208V94.352C404.138 94.992 404.458 95.312 405.098 95.312ZM453.209 122H447.161C446.073 122 445.529 121.456 445.529 120.368V74.672C445.529 73.584 446.073 73.04 447.161 73.04H453.209C454.297 73.04 454.841 73.584 454.841 74.672V78.32H455.225C455.865 76.72 457.081 75.44 458.873 74.48C460.729 73.52 462.777 73.04 465.017 73.04H468.569C469.657 73.04 470.201 73.584 470.201 74.672V79.664C470.201 80.88 469.657 81.392 468.569 81.2H462.809C457.497 81.2 454.841 84.112 454.841 89.936V120.368C454.841 121.456 454.297 122 453.209 122ZM497.942 119.6H493.622C489.014 119.6 485.462 118.32 482.966 115.76C480.534 113.136 479.318 109.456 479.318 104.72V87.92C479.318 83.184 480.63 79.536 483.254 76.976C485.878 74.352 489.526 73.04 494.198 73.04H515.702C516.854 73.04 517.43 73.584 517.43 74.672V122.192C517.43 126.864 516.086 130.48 513.398 133.04C510.774 135.664 507.126 136.976 502.454 136.976H484.406C483.318 136.976 482.774 136.464 482.774 135.44V130.448C482.774 129.36 483.318 128.816 484.406 128.816H501.014C505.686 128.816 508.022 126.448 508.022 121.712V114.416H507.638C506.038 117.872 502.806 119.6 497.942 119.6ZM508.022 103.28V82.16C508.022 81.52 507.67 81.2 506.966 81.2H495.542C490.998 81.2 488.726 83.568 488.726 88.304V104.24C488.726 108.976 490.998 111.344 495.542 111.344H500.15C505.398 111.344 508.022 108.656 508.022 103.28ZM537.558 137.552H532.47C531.382 137.552 530.838 137.008 530.838 135.92V131.024C530.838 129.872 531.382 129.296 532.47 129.296H534.678C538.582 129.296 541.27 128.528 542.742 126.992C544.278 125.456 545.558 122.928 546.582 119.408H542.742C541.782 119.408 541.11 118.864 540.726 117.776L527.958 74.672C527.702 73.584 528.118 73.04 529.206 73.04H535.638C536.662 73.04 537.302 73.584 537.558 74.672L548.022 112.304H548.406L558.87 74.672C559.062 73.584 559.702 73.04 560.79 73.04H566.934C568.15 73.04 568.662 73.616 568.47 74.768L555.318 120.944C553.846 126.32 551.766 130.416 549.078 133.232C546.39 136.112 542.55 137.552 537.558 137.552ZM621.469 122H613.213C612.253 122 611.613 121.456 611.293 120.368L600.253 74.672C599.997 73.584 600.381 73.04 601.405 73.04H608.317C609.469 73.04 610.109 73.584 610.237 74.672L617.245 110.96H617.917L626.365 74.672C626.557 73.584 627.165 73.04 628.189 73.04H634.525C635.613 73.04 636.285 73.584 636.541 74.672L644.797 110.96H645.469L652.477 74.672C652.669 73.584 653.309 73.04 654.397 73.04H661.309C662.397 73.04 662.781 73.584 662.461 74.672L651.421 120.368C651.229 121.456 650.589 122 649.501 122H641.245C640.221 122 639.581 121.456 639.325 120.368L631.645 84.752H630.973L623.389 120.368C623.197 121.456 622.557 122 621.469 122ZM707.717 122H686.981C682.245 122 678.565 120.688 675.941 118.064C673.381 115.44 672.101 111.792 672.101 107.12V87.92C672.101 83.184 673.381 79.536 675.941 76.976C678.565 74.352 682.245 73.04 686.981 73.04H694.853C699.589 73.04 703.269 74.352 705.893 76.976C708.517 79.536 709.829 83.184 709.829 87.92V100.112C709.829 101.264 709.253 101.84 708.101 101.84H682.373C681.669 101.84 681.317 102.16 681.317 102.8V106.928C681.317 111.6 683.653 113.936 688.325 113.936H707.717C708.869 113.936 709.445 114.512 709.445 115.664V120.464C709.445 121.488 708.869 122 707.717 122ZM682.373 95.312H699.557C700.197 95.312 700.517 94.992 700.517 94.352V88.208C700.517 85.776 699.973 84.016 698.885 82.928C697.797 81.776 696.037 81.2 693.605 81.2H688.325C685.893 81.2 684.133 81.776 683.045 82.928C681.957 84.016 681.413 85.776 681.413 88.208V94.352C681.413 94.992 681.733 95.312 682.373 95.312ZM733.172 113.84H745.076C749.684 113.84 751.988 111.472 751.988 106.736V87.92C751.988 83.184 749.684 80.816 745.076 80.816H739.988C734.74 80.816 732.116 83.504 732.116 88.88V112.784C732.116 113.488 732.468 113.84 733.172 113.84ZM722.804 120.368V56.144C722.804 55.056 723.348 54.512 724.436 54.512H730.484C731.572 54.512 732.116 55.056 732.116 56.144V77.84H732.5C734.1 74.384 737.332 72.656 742.196 72.656H746.42C751.156 72.656 754.836 73.968 757.46 76.592C760.084 79.152 761.396 82.768 761.396 87.44V107.12C761.396 111.792 760.084 115.44 757.46 118.064C754.836 120.688 751.156 122 746.42 122H724.436C723.348 122 722.804 121.456 722.804 120.368ZM829.927 115.472V120.464C829.927 121.488 829.351 122 828.199 122H814.087C809.351 122 805.671 120.688 803.047 118.064C800.487 115.44 799.207 111.792 799.207 107.12V87.92C799.207 83.184 800.487 79.536 803.047 76.976C805.671 74.352 809.351 73.04 814.087 73.04H828.199C829.351 73.04 829.927 73.584 829.927 74.672V79.664C829.927 80.688 829.351 81.2 828.199 81.2H815.431C810.823 81.2 808.519 83.568 808.519 88.304V106.736C808.519 111.472 810.823 113.84 815.431 113.84H828.199C829.351 113.84 829.927 114.384 829.927 115.472ZM849.153 122H843.105C842.017 122 841.473 121.456 841.473 120.368V56.144C841.473 55.056 842.017 54.512 843.105 54.512H849.153C850.241 54.512 850.785 55.056 850.785 56.144V78.128H851.169C852.705 74.736 855.937 73.04 860.865 73.04H865.089C869.761 73.04 873.345 74.32 875.841 76.88C878.337 79.44 879.585 83.12 879.585 87.92V120.368C879.585 121.456 879.009 122 877.857 122H871.809C870.721 122 870.177 121.456 870.177 120.368V88.304C870.177 83.568 867.841 81.2 863.169 81.2H858.657C853.409 81.2 850.785 83.92 850.785 89.36V120.368C850.785 121.456 850.241 122 849.153 122ZM911.131 122H907.387C902.651 122 898.971 120.688 896.347 118.064C893.787 115.44 892.507 111.792 892.507 107.12V87.92C892.507 83.184 893.787 79.536 896.347 76.976C898.971 74.352 902.651 73.04 907.387 73.04H928.891C930.043 73.04 930.619 73.584 930.619 74.672V120.368C930.619 121.456 930.043 122 928.891 122H922.843C921.755 122 921.211 121.456 921.211 120.368V116.912H920.827C919.291 120.304 916.059 122 911.131 122ZM921.211 105.68V82.16C921.211 81.52 920.859 81.2 920.155 81.2H908.731C904.123 81.2 901.819 83.568 901.819 88.304V106.736C901.819 111.472 904.123 113.84 908.731 113.84H913.339C918.587 113.84 921.211 111.12 921.211 105.68ZM945.472 64.88V56.144C945.472 55.12 945.984 54.608 947.008 54.608H953.248C954.272 54.608 954.784 55.12 954.784 56.144V64.88C954.784 65.968 954.272 66.512 953.248 66.512H947.008C945.984 66.512 945.472 65.968 945.472 64.88ZM945.472 120.368V74.672C945.472 73.584 945.984 73.04 947.008 73.04H953.152C954.24 73.04 954.784 73.584 954.784 74.672V120.368C954.784 121.008 954.656 121.456 954.4 121.712C954.208 121.904 953.824 122 953.248 122H947.104C946.016 122 945.472 121.456 945.472 120.368ZM977.478 122H971.43C970.342 122 969.798 121.456 969.798 120.368V74.672C969.798 73.584 970.342 73.04 971.43 73.04H977.478C978.566 73.04 979.11 73.584 979.11 74.672V78.128H979.494C981.03 74.736 984.262 73.04 989.19 73.04H993.414C998.086 73.04 1001.67 74.32 1004.17 76.88C1006.66 79.44 1007.91 83.12 1007.91 87.92V120.368C1007.91 121.456 1007.33 122 1006.18 122H1000.13C999.046 122 998.502 121.456 998.502 120.368V88.304C998.502 83.568 996.166 81.2 991.494 81.2H986.982C981.734 81.2 979.11 83.92 979.11 89.36V120.368C979.11 121.456 978.566 122 977.478 122Z" fill="#452E66"/>
</g>
<defs>
<clipPath id="clip0_1_5">
<rect width="1014" height="250" fill="white"/>
</clipPath>
</defs>
</svg>
